# xmcd CD database file
#
# Track frame offsets:
#	150
#	52807
#	109536
#	169005
#	229278
#	278642
#
# Disc length: 4652 seconds
#
# Revision: 0
# Processed by: cddbd v1.5PL3 Copyright (c) Steve Scherf et al.
# Submitted via: CDex 1.51
#
DISCID=43122a06
DTITLE=Rich Perry - At Eastman
DYEAR=2003
DGENRE=Jazz
TTITLE0=Doxy
TTITLE1=How Deep is the Ocean
TTITLE2=Acquiescence
TTITLE3=Bemsha Swing
TTITLE4=You Don't Know What Love Is
TTITLE5=Stella By Starlight
EXTD=YEAR: 2003
EXTT0=
EXTT1=
EXTT2=
EXTT3=
EXTT4=
EXTT5=
PLAYORDER=
